# xmcd
#
# Track frame offsets:
#	150
#	4597
#	17394
#	35950
#	51197
#	68802
#	87863
#	99719
#	113142
#	127190
#	140499
#	154478
#
# Disc length: 2316 seconds
# Revision: 0
# Processed by: cddbd v1.5.2PL0 Copyright (c) Steve Scherf et al.
# Submitted via: dBpowerAMP V12.0
#
DISCID=a3090a0c
DTITLE=Daryl Roberts - Wall of Stone
DYEAR=2011
DGENRE=Blues
TTITLE0=Intro
TTITLE1=Wishing Cup
TTITLE2=Fool of Myself
TTITLE3=It's Not Too Late
TTITLE4=Wall of Stone
TTITLE5=Misunderstood
TTITLE6=Nothing Is What It Seems
TTITLE7=If
TTITLE8=No Difference to Me
TTITLE9=Let it Go
TTITLE10=Louder Than Silence
TTITLE11=Someday
EXTD=
EXTT0=
EXTT1=
EXTT2=
EXTT3=
EXTT4=
EXTT5=
EXTT6=
EXTT7=
EXTT8=
EXTT9=
EXTT10=
EXTT11=
PLAYORDER=
